<svg width="108" height="32" viewBox="0 0 108 32" fill="none" xmlns="http://www.w3.org/2000/svg">
<path d="M49.6062 29.6666C49.5245 29.7882 49.4224 29.8895 49.3407 30.0111C48.6667 30.9028 47.8293 31.531 46.7059 31.7134C44.7452 32.0579 43.2338 31.0852 42.8048 29.2208C42.09 26.1607 43.7444 22.1683 47.8701 21.3374C49.4428 21.0132 50.9951 21.1753 52.5269 21.6414C52.6699 21.682 53.0375 21.8644 53.0988 21.9049C53.0171 22.4723 52.9354 23.06 52.8537 23.6275C52.6495 25.0461 52.4248 26.4646 52.2206 27.9035C52.1797 28.248 52.1797 28.6128 52.241 28.9573C52.3431 29.5045 52.7312 29.7477 53.2826 29.6261C53.6911 29.545 54.0588 29.3424 54.3447 29.0586C54.7328 28.6939 54.9983 28.2683 55.1821 27.8022C55.6315 26.7078 55.754 25.5527 55.6927 24.3976C55.6519 23.5059 55.4681 22.6547 55.08 21.8441C54.263 20.1012 52.8742 18.9866 51.0155 18.5205C48.3195 17.8315 45.8073 18.2571 43.581 19.9594C41.8449 21.2969 40.8849 23.1006 40.4969 25.2082C40.2109 26.7889 40.2313 28.3493 40.7215 29.8895C40.8645 30.3556 41.0892 30.8015 41.2934 31.2676C41.3343 31.3689 41.3955 31.4702 41.4568 31.5918C41.3138 31.5918 41.2117 31.5918 41.13 31.5918C40.456 31.5918 39.8024 31.5918 39.1284 31.5918C38.8629 31.5918 38.7404 31.4905 38.6382 31.2676C38.2502 30.3354 38.0051 29.3424 37.9438 28.3493C37.76 25.6945 38.3319 23.2221 39.8433 21.0132C41.5385 18.5408 43.8669 17.0411 46.8285 16.4737C48.8505 16.0887 50.8317 16.1697 52.7516 16.9398C55.7744 18.1558 57.5514 20.385 58.0007 23.6072C58.2458 25.35 58.0211 27.0523 57.245 28.6331C56.5914 29.9909 55.5702 30.9839 54.12 31.4702C53.3031 31.754 52.4452 31.835 51.5874 31.6729C50.6887 31.4905 50.1168 30.9433 49.8309 30.0922C49.79 29.9301 49.7492 29.7882 49.6879 29.6261C49.6675 29.6666 49.6266 29.6666 49.6062 29.6666ZM49.6675 23.8301C49.5245 23.7896 49.402 23.7491 49.2999 23.7491C48.4012 23.6477 47.6659 23.9517 47.0531 24.6002C46.4608 25.2284 46.1545 25.9783 46.0319 26.8294C45.9502 27.3361 45.9502 27.8427 46.1136 28.3291C46.3383 28.9978 46.9715 29.3018 47.6455 29.0789C47.9927 28.9573 48.2582 28.7344 48.5033 28.4507C48.8709 28.0048 49.0956 27.4982 49.2182 26.951C49.2999 26.5254 49.3611 26.0999 49.4224 25.6743C49.5041 25.0461 49.5858 24.4583 49.6675 23.8301Z" fill="white"/>
<path d="M97.3587 29.5855C97.42 29.4234 97.5017 29.2816 97.563 29.1194C98.5025 26.9105 99.442 24.6813 100.382 22.4723C100.688 21.7428 101.239 21.3983 102.016 21.3577C102.261 21.3375 102.506 21.3375 102.751 21.378C103.404 21.4793 103.874 21.8441 104.119 22.4723C104.63 23.6883 105.14 24.9042 105.672 26.1404C106.386 27.8427 107.101 29.545 107.816 31.2473C107.877 31.3892 107.939 31.531 108 31.7134C106.979 31.7134 105.998 31.7134 105.018 31.7134C104.099 29.4234 103.2 27.1537 102.301 24.8637C102.261 24.8637 102.24 24.8637 102.22 24.8637C102.159 24.9853 102.097 25.0866 102.056 25.2082C101.342 27.0118 100.627 28.8155 99.9118 30.5988C99.7893 30.9028 99.4625 31.7134 99.4625 31.7134C99.442 31.7134 99.3399 31.7134 99.2582 31.7134C97.9102 31.7134 96.5826 31.7134 95.2346 31.7134C95.2141 31.7134 95.2141 31.7134 95.1733 31.7134C95.1325 31.6324 95.0712 31.4905 95.0099 31.3689C94.7852 30.8217 94.5401 30.2948 94.3563 29.7477C94.2542 29.4842 94.1112 29.4032 93.8457 29.4234C92.8449 29.4437 91.8441 29.4234 90.8433 29.4234C90.4552 29.4234 90.4552 29.4234 90.3123 29.7679C90.108 30.2746 89.9038 30.7812 89.6995 31.2879C89.6382 31.4297 89.577 31.5716 89.5157 31.7134C88.5353 31.7134 87.5958 31.7134 86.5746 31.7134C86.6358 31.5513 86.6767 31.4297 86.7175 31.3081C87.7592 28.8357 88.8008 26.3836 89.8221 23.9112C90.0059 23.4856 90.1693 23.06 90.3531 22.6344C90.7207 21.763 91.3539 21.3172 92.3139 21.3375C93.3351 21.3577 93.9274 21.7225 94.3359 22.675C95.255 24.8434 96.1537 26.9915 97.0728 29.16C97.1341 29.3018 97.1953 29.4437 97.2566 29.5855C97.2975 29.5855 97.3179 29.5855 97.3587 29.5855ZM93.3147 27.0523C93.0083 26.2417 92.7224 25.4919 92.3343 24.7421C91.9462 25.4919 91.6398 26.2417 91.3539 27.0523C92.0483 27.0523 92.6407 27.0523 93.3147 27.0523Z" fill="white"/>
<path d="M23.5444 10.2928C23.5035 10.4144 23.4831 10.4954 23.4627 10.5562C23.238 11.2655 23.3606 11.9343 23.8099 12.5017C24.5656 13.4947 25.5868 14.1027 26.8327 14.2648C28.0378 14.4269 29.1407 14.123 30.1824 13.5353C30.6113 13.2921 30.9994 12.9678 31.4078 12.6841C31.51 12.603 31.6121 12.522 31.7142 12.4409C32.3065 13.9406 32.2657 18.3585 31.6529 19.6757C31.5712 19.5744 31.51 19.4933 31.4487 19.392C30.3662 17.9329 29.0182 16.7777 27.4251 15.8861C26.22 15.2173 24.9128 14.8525 23.524 14.9336C23.4014 14.9336 23.2789 14.9336 23.1767 14.9538C22.8091 15.0754 22.5232 14.9538 22.2168 14.7309C21.2568 14.0622 20.3582 13.3326 19.5616 12.4814C19.0101 11.8735 18.5404 11.2047 18.2136 10.4549C17.6417 9.17815 17.5396 7.88115 18.0706 6.58415C18.9897 4.27388 20.5624 2.51077 22.8908 1.53802C25.4643 0.463947 27.8335 0.990852 29.876 2.87555C30.4887 3.44299 30.9789 4.11175 31.3261 4.88184C31.9797 6.36123 31.9185 7.80009 31.1219 9.21868C30.5296 10.2522 29.6922 11.0426 28.6505 11.61C28.1603 11.8937 27.6293 12.0559 27.037 12.0356C26.7306 12.0153 26.4651 11.9343 26.2404 11.7113C26.0566 11.529 26.0158 11.3668 26.1792 11.1642C26.4038 10.9007 26.6693 10.6373 26.9553 10.4346C28.1399 9.54293 29.3245 8.69178 30.5092 7.82036C30.9177 7.51637 30.9585 7.47584 30.7338 7.03C29.9169 5.36822 28.7527 4.03069 26.9961 3.30113C24.3205 2.18652 21.4815 3.44299 20.1335 5.46955C18.765 7.5569 20.0926 9.54293 21.9513 10.1104C22.3189 10.2117 22.707 10.232 23.0951 10.2725C23.2176 10.313 23.3606 10.2928 23.5444 10.2928Z" fill="white"/>
<path d="M8.59363 21.6617C8.61406 21.5807 8.61406 21.5401 8.63448 21.4793C8.94085 20.6687 8.77746 19.9391 8.22599 19.2906C7.12307 17.9936 5.71377 17.4465 4.01853 17.6694C2.75221 17.8315 1.69013 18.4192 0.730178 19.2299C0.628055 19.3109 0.546357 19.392 0.444234 19.473C-0.148078 18.48 -0.148078 14.1635 0.444234 12.218C0.525932 12.3395 0.607631 12.4206 0.689329 12.5219C1.77183 13.9608 3.09943 15.1159 4.67212 16.0076C6.10184 16.798 7.65411 17.1628 9.28807 16.9196C9.39019 16.8993 9.51274 16.9398 9.61486 17.0006C10.8608 17.8113 12.0045 18.7232 12.9236 19.8783C13.3321 20.385 13.6589 20.9119 13.9244 21.4996C14.4759 22.7561 14.5576 24.0328 14.0674 25.2893C13.1483 27.6198 11.5552 29.4032 9.2268 30.3759C5.71377 31.8553 2.18032 30.0314 0.771027 26.9916C0.42381 26.2823 0.301262 25.5122 0.362536 24.7218C0.403385 24.1341 0.546357 23.587 0.811876 23.0803C1.44504 21.8238 2.40499 20.8714 3.65089 20.2229C4.1615 19.9594 4.69254 19.8176 5.28486 19.9189C5.36655 19.9391 5.46868 19.9594 5.55038 19.9999C6.12226 20.2229 6.18354 20.5471 5.77505 20.9727C5.5708 21.1753 5.34613 21.378 5.10104 21.5401C3.91641 22.4115 2.73179 23.283 1.54716 24.1544C1.24079 24.3773 1.19994 24.4381 1.34292 24.7624C2.30287 26.8092 3.73259 28.3291 6.02014 28.8965C6.91882 29.1195 7.8175 29.0789 8.71618 28.8155C9.85996 28.4912 10.8199 27.8427 11.6165 26.951C11.9228 26.6065 12.1679 26.2215 12.3313 25.7756C12.7398 24.661 12.556 23.668 11.7594 22.7966C11.0242 22.0062 10.1051 21.6212 9.02255 21.6415C8.9 21.6617 8.75703 21.6617 8.59363 21.6617Z" fill="white"/>
<path d="M19.5617 31.6121C17.1516 32.139 14.8028 32.139 12.3723 31.5513C12.5356 31.4297 12.6378 31.3486 12.7399 31.2676C14.3534 30.0111 15.6606 28.4912 16.498 26.6065C17.0495 25.3906 17.2333 24.0936 17.0495 22.756C17.0291 22.6344 17.0699 22.4926 17.1312 22.4115C17.989 21.0943 18.9694 19.8783 20.2561 18.9258C21.114 18.2773 22.0739 17.8315 23.1564 17.7099C23.9734 17.6086 24.77 17.7099 25.5257 18.0341C27.8949 19.0474 29.7127 20.6687 30.6114 23.1208C31.8981 26.647 29.917 29.9706 27.0167 31.2473C25.6074 31.8755 24.1981 31.754 22.8501 30.9839C21.8084 30.3962 21.0118 29.5653 20.4604 28.5115C20.2766 28.1669 20.154 27.7616 20.0519 27.3563C19.9702 26.9915 20.0315 26.6268 20.2357 26.2822C20.44 25.9377 20.6646 25.8972 20.9506 26.1607C21.1957 26.3836 21.4203 26.6268 21.6246 26.8902C22.5233 28.0656 23.3811 29.2613 24.2798 30.457C24.5249 30.7812 24.5861 30.8217 24.9129 30.6596C26.8737 29.7477 28.4055 28.3899 28.9979 26.262C29.5902 24.1341 28.957 22.2697 27.4456 20.6889C26.8941 20.1215 26.2405 19.6959 25.4644 19.5135C24.6678 19.3311 23.9326 19.4933 23.279 19.9594C22.319 20.6484 21.8084 21.6009 21.7676 22.7763C21.7676 22.9587 21.7676 23.1613 21.7676 23.364C21.645 23.3437 21.5633 23.3437 21.4816 23.3032C20.7872 23.0803 20.154 23.2221 19.5821 23.6275C18.5609 24.3773 17.9482 25.3906 17.7643 26.6673C17.5601 28.0454 17.989 29.2815 18.7243 30.4367C18.949 30.842 19.2553 31.1865 19.5617 31.6121Z" fill="white"/>
<path d="M10.4114 8.5904C10.6361 8.63093 10.8199 8.69173 11.0037 8.71199C11.6369 8.79305 12.2292 8.63093 12.7194 8.22562C13.8836 7.25287 14.4963 5.9964 14.4351 4.47648C14.3942 3.05789 13.7611 1.84196 12.8828 0.767882C12.7807 0.646288 12.699 0.54496 12.556 0.382836C14.9865 -0.14407 17.3354 -0.123804 19.7863 0.423367C19.6229 0.54496 19.5208 0.626023 19.4391 0.707085C17.8255 1.96355 16.5388 3.4632 15.681 5.32764C15.1295 6.54357 14.9048 7.84057 15.0886 9.15783C15.1091 9.36049 15.0887 9.50235 14.9661 9.66447C14.3125 10.6372 13.5772 11.5694 12.7194 12.3801C12.1067 12.9475 11.4327 13.4339 10.6769 13.7987C9.32892 14.4269 7.94005 14.5282 6.59203 13.9608C4.3249 13.0083 2.56839 11.4478 1.62886 9.15783C0.219564 5.71268 1.9965 2.20674 5.06019 0.808413C6.63288 0.0991173 8.18514 0.281508 9.61486 1.23399C10.4318 1.78116 11.0854 2.49046 11.596 3.34161C11.8616 3.78745 12.0454 4.25356 12.1067 4.78047C12.1475 5.14525 12.0862 5.48976 11.882 5.79375C11.6777 6.07747 11.4939 6.118 11.2488 5.89508C10.9833 5.67215 10.7586 5.4087 10.5544 5.14525C9.65571 3.96984 8.79788 2.77417 7.8992 1.57851C7.65411 1.25426 7.57241 1.21372 7.22519 1.37585C5.24401 2.30807 3.73259 3.68613 3.14028 5.87481C2.46627 8.34721 3.75301 10.8804 5.59123 12.0355C7.73581 13.4136 9.73741 11.9748 10.2685 10.1914C10.3706 9.84686 10.391 9.46182 10.4318 9.09704C10.4318 8.89438 10.4114 8.75252 10.4114 8.5904Z" fill="white"/>
<path d="M81.4889 28.4506C81.4889 29.545 81.4889 30.5988 81.4889 31.7134C80.5493 31.7134 79.6098 31.7134 78.6703 31.7134C78.6703 31.5513 78.6703 25.958 78.6703 23.2627C78.6703 22.2088 79.3034 21.459 80.4676 21.4388C82.1016 21.4388 83.6947 21.4388 85.3083 21.4388C86.0436 21.4388 86.738 21.6617 87.269 22.2088C87.5958 22.5534 87.8001 22.9587 87.9022 23.4248C88.1269 24.4786 88.1473 25.5324 87.8818 26.5659C87.5754 27.7211 86.7176 28.4304 85.5125 28.4709C84.287 28.4506 82.3671 28.4506 81.4889 28.4506ZM81.5093 25.9782C81.6931 25.9782 84.43 25.9782 84.5117 25.9782C84.8794 25.9782 85.1244 25.7148 85.1244 25.4513C85.1449 25.1271 85.1244 24.6812 85.1244 24.3975C85.1244 24.1138 84.8998 23.8706 84.5117 23.8706C84.43 23.8706 81.6727 23.8706 81.5093 23.8706C81.5093 24.5799 81.5093 25.2284 81.5093 25.9782Z" fill="white"/>
<path d="M69.7039 29.3221C69.7039 30.153 69.7039 30.9231 69.7039 31.7135C68.8665 31.7135 65.3535 31.7135 63.2089 31.7135C62.8004 31.7135 62.3715 31.6527 61.963 31.5311C60.5129 31.1055 59.7163 30.0922 59.3895 28.6736C59.2874 28.2278 59.2466 27.7617 59.2261 27.3158C59.1853 26.4444 59.1853 25.5527 59.3691 24.6813C59.7368 22.8371 60.9827 21.7023 62.8617 21.5199C63.2498 21.4793 63.6174 21.4591 64.0055 21.4591C65.1493 21.4591 67.7023 21.4591 67.8862 21.4591C67.8862 22.2697 67.8862 23.0601 67.8862 23.8707C67.7023 23.8707 65.5578 23.8909 64.6387 23.9112C64.271 23.9112 63.9238 23.9315 63.5562 23.972C62.9026 24.0328 62.4328 24.3773 62.249 25.0258C62.0447 25.7351 62.0039 26.4849 62.0447 27.2145C62.0652 27.5185 62.106 27.8225 62.1673 28.1265C62.3103 28.8357 62.6983 29.1803 63.4132 29.2816C63.7604 29.3221 64.128 29.3627 64.4753 29.3627C66.0684 29.3221 69.4997 29.3221 69.7039 29.3221Z" fill="white"/>
<path d="M77.7308 21.4185C77.7308 21.7631 77.7308 23.4451 77.7308 23.8504C77.5878 23.8504 77.4653 23.8504 77.3019 23.8504C76.587 23.8504 75.8926 23.8504 75.1982 23.8504C75.0552 23.8504 74.9122 23.8504 74.708 23.8504C74.708 26.4647 74.708 29.0992 74.708 31.6932C73.7684 31.6932 72.8493 31.6932 71.9098 31.6932C71.9098 29.0992 71.9098 26.4647 71.9098 23.8504C70.8682 23.8504 69.8674 23.8504 68.8665 23.8504C68.8665 23.5059 68.8665 21.9455 68.8665 21.4185C71.8281 21.4185 74.7897 21.4185 77.7308 21.4185Z" fill="white"/>
<path d="M16.1507 12.0153C17.172 13.6568 18.52 14.9133 20.0518 16.0481C18.4178 17.0614 17.1515 18.399 16.0078 19.9391C14.9865 18.2976 13.6589 17.0412 12.1067 15.9063C13.7406 14.9133 15.0069 13.5757 16.1507 12.0153Z" fill="white"/>
<path d="M27.0779 6.52332C26.4651 6.98943 25.8728 7.43527 25.2601 7.86085C24.9537 8.08377 24.5861 8.2459 24.198 8.28643C23.9325 8.30669 23.6466 8.30669 23.4015 8.22563C22.9725 8.08377 22.8296 7.6582 23.0134 7.27315C23.0542 7.19209 23.0951 7.11102 23.1564 7.05023C23.8304 6.25987 24.6474 5.7735 25.7094 5.81403C26.2609 5.81403 26.7102 6.03695 27.0779 6.52332Z" fill="white"/>
<path d="M5.08064 25.4311C5.7138 24.9649 6.32654 24.4988 6.9597 24.053C7.40904 23.749 7.91966 23.5869 8.49154 23.6679C8.65494 23.6882 8.83876 23.7693 8.98173 23.8706C9.22683 24.053 9.2881 24.3367 9.16556 24.6204C9.14513 24.661 9.12471 24.7218 9.10428 24.7623C8.59367 25.6945 7.14352 26.343 6.10187 26.0998C5.69338 26.0188 5.34616 25.8161 5.08064 25.4311Z" fill="white"/>
<path d="M25.5869 26.8903C25.5052 26.8092 25.4439 26.7484 25.3827 26.6673C25.0559 26.2418 24.7086 25.7959 24.3819 25.3501C24.0959 24.965 23.8712 24.5192 23.81 24.0328C23.7895 23.7896 23.81 23.5262 23.8712 23.283C23.9938 22.8777 24.4227 22.7358 24.8108 22.9385C25.2193 23.1614 25.5052 23.4856 25.7503 23.8707C26.1384 24.4989 26.363 25.188 26.1792 25.9378C26.1179 26.3228 25.9341 26.6471 25.5869 26.8903Z" fill="white"/>
<path d="M6.57159 5.08444C6.61244 5.14524 6.67371 5.18577 6.71456 5.24657C7.06178 5.71268 7.42942 6.17878 7.77664 6.64489C8.083 7.0502 8.28725 7.49605 8.3281 8.00269C8.34852 8.18508 8.3281 8.36747 8.28725 8.52959C8.18513 9.01596 7.71536 9.21862 7.28645 8.97543C6.83711 8.73225 6.53074 8.3472 6.28564 7.90136C5.93843 7.29339 5.77503 6.62463 5.95885 5.91533C6.06097 5.57082 6.24479 5.30736 6.57159 5.08444Z" fill="white"/>
</svg>
