<svg width="434" height="299" viewBox="0 0 434 299" fill="none" xmlns="http://www.w3.org/2000/svg">
<path opacity="0.12" d="M180.116 46.5481C165.975 40.768 151.032 35.9289 135.777 36.5448C113.331 37.4323 91.8334 50.997 81.2726 70.9155C72.3249 87.7891 71.2217 107.57 67.3679 126.295C62.6202 149.37 53.5279 171.296 43.8118 192.741C38.5923 204.244 33.0874 216.026 32.2315 228.654C31.0407 246.181 39.3759 263.652 52.4437 275.323C65.5115 286.994 82.8781 293.134 100.29 294.476C109.561 295.192 119.247 294.53 127.483 290.192C136.195 285.602 142.545 277.304 151.291 272.783C159.398 268.575 168.878 268.001 177.978 268.548C189.897 269.265 201.642 271.775 212.821 275.992C225.539 280.797 237.367 287.751 250.058 292.621C262.749 297.491 276.928 300.211 289.9 296.144C302.074 292.319 311.714 283.062 320.399 273.67C334.655 258.256 347.656 241.715 359.279 224.209C367.112 212.411 374.401 199.964 377.867 186.211C384.486 159.924 375.375 130.262 355.159 112.306C338.42 97.4328 315.941 90.9757 293.94 87.0585C273.88 83.4856 250.686 83.2638 232.219 73.9529C214.606 65.0589 198.582 54.0993 180.116 46.5481Z" fill="#0074C6"/>
<path d="M309.808 62.4842C309.865 62.3542 309.911 62.2165 309.957 62.0788C309.811 62.3832 309.684 62.6962 309.576 63.016C309.656 62.8362 309.736 62.6602 309.808 62.4842Z" fill="url(#paint0_linear)"/>
<path d="M277.278 206.336C277.141 208.039 272.975 207.396 272.975 207.396C266.066 208.36 267.208 201.551 267.208 201.551V201.203L267.447 194.853L267.516 193.081C267.516 193.081 275.124 189.585 274.93 190.32C274.858 190.595 275.018 191.257 275.239 191.972C275.619 193.162 276.163 194.508 276.163 194.508C276.163 194.508 276.209 197.316 275.98 198.142C275.752 198.969 277.171 201.18 277.171 201.18C277.171 201.18 277.171 201.317 277.194 201.562C277.307 203.151 277.334 204.745 277.278 206.336Z" fill="#B77983"/>
<path opacity="0.05" d="M275.269 191.972C272.408 195.392 269.319 195.335 267.478 194.853L267.546 193.081C267.546 193.081 275.155 189.585 274.961 190.32C274.889 190.595 275.033 191.257 275.269 191.972Z" fill="black"/>
<path opacity="0.05" d="M290.916 167.677C290.916 167.677 295.538 165 296.546 166.205C297.555 167.41 290.916 167.677 290.916 167.677Z" fill="black"/>
<path opacity="0.05" d="M293.708 169.15C293.708 169.15 292.948 169.533 294.625 170.022C296.303 170.512 293.708 169.15 293.708 169.15Z" fill="black"/>
<path opacity="0.05" d="M265.758 161.786C265.602 161.832 269.604 164.502 273.219 162.291C273.203 162.291 266.66 161.511 265.758 161.786Z" fill="black"/>
<path opacity="0.05" d="M273.021 166.893C273.021 166.893 271.925 169.058 269.681 169.38C267.436 169.701 273.021 166.893 273.021 166.893Z" fill="black"/>
<path opacity="0.05" d="M287.713 171.591C287.713 171.591 292.978 180.007 291.97 181.992C290.962 183.977 287.713 171.591 287.713 171.591Z" fill="black"/>
<path opacity="0.05" d="M277.323 205.055C277.323 205.525 277.323 205.965 277.278 206.329C277.141 208.031 272.975 207.388 272.975 207.388C269.171 207.92 267.801 206.084 267.349 204.328C267.206 203.758 267.136 203.172 267.139 202.584C267.137 202.233 267.16 201.883 267.208 201.536V201.187C267.611 201.065 268.039 201.045 268.452 201.13C268.865 201.215 269.251 201.402 269.574 201.673C271.267 203.054 273.512 201.995 273.512 201.995C273.512 201.995 275.159 202.132 275.794 202.683C276.152 202.993 276.741 202.247 277.19 201.536C277.217 201.995 277.259 202.825 277.285 203.712C277.316 204.167 277.323 204.626 277.323 205.055Z" fill="black"/>
<path opacity="0.05" d="M270.643 204.955C270.643 204.955 269.502 206.08 267.348 204.343C267.206 203.773 267.136 203.187 267.139 202.599C268.239 203.441 270.278 204.955 270.643 204.955Z" fill="black"/>
<path opacity="0.05" d="M277.323 205.055C277.231 205.127 277.124 205.179 277.01 205.208C276.897 205.237 276.778 205.243 276.662 205.224C276.547 205.205 276.436 205.163 276.337 205.1C276.238 205.036 276.153 204.953 276.087 204.856C276.531 204.516 276.939 204.132 277.304 203.708C277.316 204.167 277.323 204.626 277.323 205.055Z" fill="black"/>
<path opacity="0.05" d="M286.252 205.843C286.345 205.915 286.451 205.967 286.564 205.996C286.678 206.025 286.796 206.03 286.911 206.012C287.027 205.993 287.137 205.951 287.236 205.888C287.335 205.824 287.419 205.741 287.485 205.644C287.04 205.305 286.632 204.92 286.267 204.496C286.256 204.952 286.248 205.411 286.252 205.843Z" fill="black"/>
<g opacity="0.05">
<path opacity="0.05" d="M309.127 64.1215C309.207 63.9455 309.283 63.7696 309.356 63.5974C309.428 63.4253 309.454 63.3297 309.496 63.1919C309.356 63.4947 309.233 63.805 309.127 64.1215Z" fill="black"/>
<path opacity="0.05" d="M291.338 61.7153C291.719 61.3902 291.745 60.8087 291.685 60.3076C291.64 60.0151 291.615 59.7198 291.612 59.424C291.531 59.5036 291.461 59.5936 291.403 59.6917C291.152 60.1508 291.258 60.7093 291.319 61.2219C291.339 61.3855 291.346 61.5506 291.338 61.7153Z" fill="black"/>
</g>
<path d="M102.786 281.837L102.786 281.835L119.578 143.675L119.578 143.675L120.97 132.2C121.097 131.163 121.595 130.209 122.368 129.515C123.142 128.821 124.139 128.435 125.174 128.427C125.174 128.427 125.174 128.427 125.174 128.427L174.359 128.098C174.359 128.098 174.359 128.098 174.359 128.098C175.193 128.093 176.018 127.92 176.784 127.591C177.551 127.261 178.244 126.781 178.823 126.178C179.402 125.576 179.856 124.864 180.157 124.084C180.459 123.304 180.602 122.471 180.579 121.635L180.579 121.626L180.56 121.104C180.56 121.104 180.56 121.103 180.56 121.102C180.56 121.102 180.56 121.102 180.56 121.102C180.541 120.526 180.637 119.953 180.842 119.415C181.048 118.877 181.36 118.386 181.758 117.972C182.156 117.558 182.632 117.229 183.158 117.005C183.685 116.78 184.25 116.664 184.822 116.664C184.822 116.664 184.822 116.664 184.822 116.664H236.507C237.634 116.664 238.716 117.114 239.515 117.916C240.314 118.717 240.766 119.806 240.768 120.944C240.768 121.139 240.755 121.334 240.731 121.528C240.615 122.401 240.684 123.289 240.931 124.133C241.179 124.98 241.602 125.765 242.172 126.437C242.743 127.109 243.447 127.653 244.241 128.034C245.035 128.414 245.9 128.623 246.78 128.645L296.418 129.919L296.419 129.919C297.029 129.934 297.629 130.081 298.179 130.35L298.619 129.452L298.179 130.35C298.728 130.62 299.213 131.005 299.602 131.48C299.991 131.956 300.273 132.51 300.43 133.106L301.397 132.851L300.43 133.106C300.587 133.702 300.614 134.325 300.51 134.932L300.51 134.933L275.695 280.679L275.694 280.679L275.227 283.433L275.226 283.438C275.161 283.834 275.04 284.216 274.867 284.575L103.463 284.719C103.227 284.363 103.045 283.972 102.925 283.559C102.762 283 102.715 282.414 102.786 281.837Z" fill="#B8DEF8" stroke="#0074C6" stroke-width="2"/>
<path d="M65.8871 130.902L73.8283 128.602L73.8303 128.601L148.506 106.801L197.167 216.415L172.32 226.08L172.32 226.08L135.401 240.43C133.984 237.825 132.03 234.471 129.673 230.553C129.672 230.552 129.672 230.552 129.672 230.552L128.815 231.067M65.8871 130.902L64.8816 131.193C67.5255 135.209 78.9283 152.551 91.9134 172.639M65.8871 130.902C66.2552 131.461 66.7535 132.219 67.3686 133.155C68.798 135.329 70.8584 138.468 73.3825 142.324C78.4305 150.036 85.3335 160.618 92.7532 172.096M65.8871 130.902L92.7532 172.096M128.815 231.067C119.875 216.171 105.084 193.001 91.9134 172.639M128.815 231.067C131.413 235.386 133.513 239.005 134.94 241.682L128.815 231.067ZM91.9134 172.639L92.7532 172.096M91.9134 172.639L92.7531 172.096C92.7531 172.096 92.7532 172.096 92.7532 172.096" fill="#E6ECF8" stroke="#0074C6" stroke-width="2"/>
<path opacity="0.1" d="M198.506 216.967L172.682 227.012C158.256 230.034 143.535 231.395 128.803 231.067C119.863 216.171 105.072 193.001 91.9018 172.639L73.5537 127.626L149.065 105.596L198.506 216.967Z" fill="black"/>
<path d="M217.718 210.716C217.718 210.716 177.601 234.579 117.707 229.181L69.9589 112.126L92.8417 108.17L171.948 94.51L216.839 208.44L217.718 210.716Z" fill="#0074C6"/>
<path opacity="0.1" d="M216.824 208.456C207.378 208.922 196.448 208.876 185.453 207.557C173.554 206.149 161.585 203.249 151.325 197.932C142.746 193.491 135.412 188.659 129.017 182.864C112.381 167.819 102.086 146.298 92.8417 108.186L171.948 94.5253L216.824 208.456Z" fill="black"/>
<path d="M186.701 203.155L186.701 203.155C174.873 201.756 163.032 198.879 152.915 193.636L152.915 193.636C144.393 189.224 137.138 184.439 130.818 178.714L130.817 178.714C110.674 160.492 99.8555 132.587 88.7459 75.9384C88.971 75.9837 89.2202 76.0328 89.4931 76.085C90.9495 76.3635 93.0786 76.7306 95.7832 77.0884C101.192 77.8039 108.905 78.4827 118.145 78.3398C136.31 78.0589 160.408 74.6014 184.485 61.9731C184.615 62.732 184.802 63.7911 185.047 65.1191C185.582 68.0171 186.398 72.1963 187.516 77.3305C189.752 87.5975 193.201 101.69 198.05 116.995C207.505 146.84 222.347 181.51 244.049 201.29C243.253 201.425 242.232 201.591 241.013 201.775C237.787 202.263 233.17 202.876 227.616 203.378C216.5 204.381 201.658 204.936 186.701 203.155Z" fill="#F9FAFB" stroke="#0074C6" stroke-width="2"/>
<path opacity="0.1" d="M186.583 204.148C174.683 202.74 162.715 199.841 152.455 194.524C143.876 190.082 136.545 185.251 130.146 179.456C147.677 178.025 150.195 168.389 150.195 168.389C163.191 189.126 186.583 204.148 186.583 204.148Z" fill="black"/>
<path d="M112.902 95.803C112.902 95.803 152.877 93.5307 164.039 84.8663L165.732 90.3366C165.732 90.3366 139.319 102.054 112.902 102.195V95.803Z" fill="#B8DEF8"/>
<path d="M112.902 122.81C112.902 122.81 151.607 120.679 180.85 106.476L181.839 108.748C181.839 108.748 158.633 122.37 112.902 125.935V122.81Z" fill="#B8DEF8"/>
<path d="M116.017 133.333C116.017 133.333 154.722 131.203 183.962 116.999L184.951 119.271C184.951 119.271 161.745 132.89 116.017 136.459V133.333Z" fill="#B8DEF8"/>
<path d="M119.129 143.872C119.129 143.872 157.834 141.742 187.078 127.538L188.063 129.81C188.063 129.81 164.857 143.432 119.129 146.998V143.872Z" fill="#B8DEF8"/>
<path d="M122.245 154.411C122.245 154.411 160.95 152.28 190.19 138.077L191.179 140.349C191.179 140.349 167.973 153.971 122.245 157.536V154.411Z" fill="#B8DEF8"/>
<path d="M125.357 164.954C125.357 164.954 164.062 162.823 193.305 148.62L194.291 150.892C194.291 150.892 171.085 164.51 125.357 168.079V164.954Z" fill="#B8DEF8"/>
<path d="M308.128 1.67862L288.33 62.912L397.301 98.5359L417.099 37.3025L308.128 1.67862Z" fill="#F6F7F9" stroke="#0074C6" stroke-width="2"/>
<path d="M319.853 47.5659C326.442 47.5659 331.783 42.195 331.783 35.5696C331.783 28.9443 326.442 23.5733 319.853 23.5733C313.264 23.5733 307.923 28.9443 307.923 35.5696C307.923 42.195 313.264 47.5659 319.853 47.5659Z" fill="#B8DEF8"/>
<path d="M349.407 30.2851L348.397 33.41L397.828 49.5697L398.839 46.4447L349.407 30.2851Z" fill="#B8DEF8"/>
<path d="M346.831 38.2524L345.821 41.3773L371.001 49.6092L372.012 46.4842L346.831 38.2524Z" fill="#B8DEF8"/>
<path d="M344.251 46.2248L343.24 49.3497L383.967 62.6637L384.977 59.5388L344.251 46.2248Z" fill="#B8DEF8"/>
<path d="M341.675 54.194L340.665 57.319L390.096 73.4786L391.106 70.3537L341.675 54.194Z" fill="#B8DEF8"/>
<path d="M373.708 77.3891L371.754 83.4316L385.433 87.9035L387.387 81.861L373.708 77.3891Z" fill="#B8DEF8"/>
<path d="M348.611 161L314 215.137L397.814 269.316L432.426 215.179L348.611 161Z" fill="#F9FAFB" stroke="#0074C6" stroke-width="2"/>
<path d="M336.131 195.992L326.42 211.361L330.016 213.659L339.727 198.29L336.131 195.992Z" fill="#0074C6"/>
<path d="M359.242 180.721L337.915 214.475L341.213 216.581L362.54 182.828L359.242 180.721Z" fill="#0074C6"/>
<path d="M366.287 185.218L344.959 218.971L348.257 221.078L369.585 187.324L366.287 185.218Z" fill="#0074C6"/>
<path d="M373.33 189.721L352.002 223.475L355.3 225.582L376.628 191.828L373.33 189.721Z" fill="#0074C6"/>
<path d="M380.476 194L359 227.592L362.282 229.713L383.758 196.121L380.476 194Z" fill="#0074C6"/>
<path d="M387.417 198.72L366.089 232.473L369.387 234.58L390.715 200.827L387.417 198.72Z" fill="#B8DEF8"/>
<path d="M394.461 203.216L373.134 236.97L376.431 239.077L397.759 205.323L394.461 203.216Z" fill="#B8DEF8"/>
<path d="M408.231 209.056L402.708 217.796L411.401 223.349L416.923 214.609L408.231 209.056Z" fill="#0074C6"/>
<path d="M132.052 148.05C131.764 146.981 131.131 146.038 130.252 145.369C129.372 144.7 128.295 144.344 127.191 144.357L127.191 144.357L127.202 145.356L127.19 144.357L129.646 146.165C130.349 146.7 130.856 147.454 131.086 148.31M132.052 148.05L132.051 148.048L131.086 148.31M132.052 148.05L134.026 155.343L134.026 155.345C134.201 155.994 134.587 156.565 135.121 156.966C135.656 157.367 136.308 157.575 136.973 157.558L136.974 157.558L178.995 156.544C178.996 156.544 178.996 156.544 178.996 156.544C179.771 156.525 180.508 156.202 181.051 155.642C181.595 155.083 181.9 154.33 181.901 153.546V148.708V148.707C181.902 147.392 182.418 146.129 183.34 145.194C184.262 144.258 185.515 143.724 186.827 143.71C186.827 143.71 186.827 143.71 186.828 143.71L186.838 144.71L136.998 158.558C136.108 158.58 135.235 158.301 134.521 157.766C133.807 157.23 133.293 156.469 133.061 155.605L131.086 148.31M132.052 148.05L131.086 148.31M245.064 143.079L245.063 143.079L71.0598 144.965L71.0696 145.965L71.0588 144.965L71.0592 144.965C70.3388 144.972 69.6286 145.136 68.9778 145.446C68.3269 145.756 67.751 146.204 67.2897 146.759C66.8284 147.313 66.4926 147.962 66.3051 148.659C66.1176 149.356 66.0829 150.086 66.2032 150.798L88.7855 284.44C88.7855 284.44 88.7855 284.44 88.7855 284.441C88.9813 285.6 89.578 286.655 90.472 287.417L91.1209 286.656L90.472 287.417C91.3662 288.18 92.5002 288.601 93.6744 288.606L271.008 289.371L271.009 289.371C271.744 289.373 272.47 289.212 273.136 288.899C273.802 288.586 274.39 288.13 274.858 287.562C275.327 286.994 275.665 286.33 275.847 285.616C276.03 284.902 276.054 284.157 275.917 283.433L275.917 283.433L250.002 147.14C250.002 147.14 250.002 147.14 250.002 147.14C249.783 145.99 249.17 144.954 248.268 144.211C247.366 143.468 246.232 143.067 245.064 143.079Z" fill="white" stroke="#0074C6" stroke-width="2"/>
<path d="M1.23035 250.909C1.23035 251.292 1.27242 251.602 1.32597 251.602C1.37952 251.602 1.4216 251.292 1.4216 250.909C1.4216 250.527 1.36805 250.707 1.3145 250.707C1.26095 250.707 1.23035 250.527 1.23035 250.909Z" fill="#FFD037"/>
<path d="M0.701616 251.368C1.03639 251.552 1.32552 251.659 1.35215 251.613C1.37878 251.567 1.1277 251.384 0.792918 251.2C0.45814 251.016 0.591291 251.15 0.564661 251.2C0.538031 251.25 0.366838 251.185 0.701616 251.368Z" fill="#FFD037"/>
<path opacity="0.1" d="M7.12694 249.524C7.19867 249.63 7.25623 249.744 7.29813 249.865C8.74377 251.575 9.51604 253.17 8.12367 253.212C6.83021 253.25 5.27425 255.576 4.90143 256.165C4.91262 256.211 4.9279 256.256 4.94708 256.299C4.94708 256.299 6.76934 253.239 8.25301 253.212C9.73669 253.185 8.75898 251.342 7.12694 249.524Z" fill="black"/>
<path d="M8.66507 250.909C8.66507 251.292 8.62299 251.602 8.56944 251.602C8.51589 251.602 8.47382 251.292 8.47382 250.909C8.47382 250.527 8.52737 250.707 8.58092 250.707C8.63447 250.707 8.66507 250.527 8.66507 250.909Z" fill="#FFD037"/>
<path d="M9.19276 251.368C8.85799 251.552 8.56506 251.659 8.54223 251.613C8.51941 251.567 8.76668 251.384 9.10146 251.2C9.43624 251.016 9.30309 251.15 9.32592 251.2C9.34874 251.25 9.52374 251.185 9.19276 251.368Z" fill="#FFD037"/>
<path opacity="0.12" d="M9.91179 61.7452C14.4564 61.7452 18.1405 58.0407 18.1405 53.471C18.1405 48.9013 14.4564 45.1968 9.91179 45.1968C5.36721 45.1968 1.68311 48.9013 1.68311 53.471C1.68311 58.0407 5.36721 61.7452 9.91179 61.7452Z" fill="#0989E3"/>
<path opacity="0.12" d="M415.593 137.866C420.138 137.866 423.822 134.162 423.822 129.592C423.822 125.022 420.138 121.318 415.593 121.318C411.048 121.318 407.364 125.022 407.364 129.592C407.364 134.162 411.048 137.866 415.593 137.866Z" fill="#0989E3"/>
<path opacity="0.12" d="M257.674 35.4689C262.219 35.4689 265.903 31.7644 265.903 27.1946C265.903 22.6249 262.219 18.9204 257.674 18.9204C253.129 18.9204 249.445 22.6249 249.445 27.1946C249.445 31.7644 253.129 35.4689 257.674 35.4689Z" fill="#0989E3"/>
<path opacity="0.12" d="M26.3692 112.986C33.9855 112.986 40.1597 106.777 40.1597 99.1187C40.1597 91.4602 33.9855 85.2518 26.3692 85.2518C18.7529 85.2518 12.5786 91.4602 12.5786 99.1187C12.5786 106.777 18.7529 112.986 26.3692 112.986Z" fill="#0989E3"/>
<path d="M171.917 214.201L172.726 215.04C172.812 215.124 172.881 215.226 172.929 215.338C172.976 215.451 173 215.573 173 215.695C173 215.818 172.976 215.94 172.929 216.053C172.881 216.165 172.812 216.267 172.726 216.351L165.629 223.716C165.548 223.806 165.45 223.877 165.342 223.926C165.233 223.975 165.116 224 164.997 224C164.879 224 164.761 223.975 164.653 223.926C164.544 223.877 164.446 223.806 164.365 223.716L157.268 216.357C157.183 216.272 157.116 216.17 157.07 216.058C157.024 215.945 157 215.824 157 215.702C157 215.58 157.024 215.459 157.07 215.346C157.116 215.233 157.183 215.132 157.268 215.047L158.077 214.208C158.159 214.12 158.257 214.05 158.366 214.002C158.474 213.954 158.591 213.93 158.709 213.93C158.827 213.93 158.944 213.954 159.052 214.002C159.161 214.05 159.259 214.12 159.341 214.208L163.537 218.795L163.537 207.911C163.536 207.792 163.558 207.673 163.602 207.563C163.645 207.452 163.709 207.352 163.791 207.267C163.872 207.182 163.968 207.115 164.074 207.069C164.18 207.024 164.294 207 164.409 207L165.579 207C165.812 207 166.035 207.096 166.2 207.267C166.364 207.438 166.457 207.669 166.457 207.911L166.457 218.782L170.653 214.195C170.736 214.107 170.834 214.038 170.943 213.991C171.052 213.943 171.169 213.919 171.286 213.92C171.404 213.921 171.521 213.946 171.629 213.994C171.738 214.043 171.836 214.113 171.917 214.201Z" fill="#0074C6"/>
<path d="M164.5 200.919C167.384 200.919 170.203 201.774 172.601 203.377C174.998 204.979 176.867 207.256 177.971 209.92C179.074 212.584 179.363 215.516 178.8 218.345C178.238 221.173 176.849 223.771 174.81 225.81C172.771 227.849 170.173 229.238 167.345 229.801C164.516 230.363 161.584 230.074 158.92 228.971C156.256 227.867 153.979 225.998 152.377 223.601C150.774 221.203 149.919 218.384 149.919 215.5C149.923 211.634 151.46 207.927 154.194 205.194C156.927 202.46 160.634 200.923 164.5 200.919ZM164.5 199C161.237 199 158.047 199.968 155.333 201.781C152.62 203.594 150.505 206.171 149.256 209.186C148.007 212.201 147.68 215.518 148.317 218.719C148.954 221.92 150.525 224.86 152.833 227.167C155.14 229.475 158.08 231.046 161.281 231.683C164.482 232.32 167.799 231.993 170.814 230.744C173.829 229.495 176.406 227.38 178.219 224.667C180.032 221.953 181 218.763 181 215.5C181 211.124 179.262 206.927 176.167 203.833C173.073 200.738 168.876 199 164.5 199Z" fill="#0074C6"/>
<path d="M256.633 62.2502C257.364 59.5187 268.901 45.9647 287.447 47.9229M256.633 62.2502L262.317 61.4277M256.633 62.2502L256.021 56.8926" stroke="#B8DEF8" stroke-width="2" stroke-linecap="round"/>
<path d="M267.665 178.182C268.837 175.608 285.5 165 304.342 168.442M267.665 178.182L281.379 179.303M267.665 178.182L272.55 163.491" stroke="white" stroke-width="4" stroke-linecap="round"/>
<path d="M329.598 179.044C324.638 174.431 318.689 171.851 313.016 170.52" stroke="white" stroke-width="4" stroke-linecap="round" stroke-dasharray="10 10"/>
<defs>
<linearGradient id="paint0_linear" x1="635.052" y1="267.037" x2="635.052" y2="264.741" gradientUnits="userSpaceOnUse">
<stop stop-color="#808080" stop-opacity="0.25"/>
<stop offset="0.54" stop-color="#808080" stop-opacity="0.12"/>
<stop offset="1" stop-color="#808080" stop-opacity="0.1"/>
</linearGradient>
</defs>
</svg>
