<svg width="24" height="24" viewBox="0 0 24 24" fill="none" xmlns="http://www.w3.org/2000/svg">
<path fill-rule="evenodd" clip-rule="evenodd" d="M9 10C9 7.23858 11.2386 5 14 5C16.7614 5 19 7.23858 19 10C19 12.7614 16.7614 15 14 15C11.2386 15 9 12.7614 9 10ZM14 3C10.134 3 7 6.13401 7 10C7 11.8276 7.7004 13.4916 8.84744 14.7383L3.29285 20.2929L4.70706 21.7071L10.406 16.0082C11.4566 16.638 12.686 17 14 17C17.866 17 21 13.866 21 10C21 6.13401 17.866 3 14 3Z" fill="#2A495E" fill-opacity="0.3"/>
</svg>
