<svg width="24" height="25" viewBox="0 0 24 25" fill="none" xmlns="http://www.w3.org/2000/svg">
<path d="M12 1C10.342 1 8.71009 1.34345 7.20416 2C6.55435 2.2833 5.928 2.6249 5.33316 3.02236C3.35977 4.34094 1.8217 6.21509 0.913451 8.4078C0.00519943 10.6005 -0.232441 13.0133 0.230582 15.3411C0.693605 17.6689 1.83649 19.8071 3.51472 21.4853C5.19295 23.1635 7.33115 24.3064 9.65892 24.7694C11.9867 25.2324 14.3995 24.9948 16.5922 24.0866C18.7849 23.1783 20.6591 21.6402 21.9776 19.6668C23.2962 17.6935 24 15.3734 24 13C24 9.8174 22.7357 6.76515 20.4853 4.51472C18.5913 2.62078 16.1295 1.4253 13.5 1.09407C13.0051 1.03173 12.5042 1 12 1ZM12 23C10.0222 23 8.08879 22.4135 6.4443 21.3147C4.79981 20.2159 3.51809 18.6541 2.76121 16.8268C2.00433 14.9996 1.8063 12.9889 2.19215 11.0491C2.578 9.10929 3.53041 7.32746 4.92894 5.92893C6.32746 4.53041 8.10929 3.578 10.0491 3.19215C11.9889 2.8063 13.9996 3.00433 15.8268 3.7612C17.6541 4.51808 19.2159 5.79981 20.3147 7.4443C21.4135 9.08879 22 11.0222 22 13C22 15.6522 20.9464 18.1957 19.0711 20.0711C17.1957 21.9464 14.6522 23 12 23Z" fill="white"/>
<path d="M12 0C11.7237 0 11.4517 0.0572411 11.2007 0.166667C11.0924 0.213884 10.988 0.270817 10.8889 0.337061C10.56 0.556823 10.3036 0.869181 10.1522 1.23463C10.0009 1.60009 9.96126 2.00222 10.0384 2.39018C10.1156 2.77814 10.3061 3.13451 10.5858 3.41421C10.8655 3.69392 11.2219 3.8844 11.6098 3.96157C11.9978 4.03874 12.3999 3.99913 12.7654 3.84776C13.1308 3.69638 13.4432 3.44004 13.6629 3.11114C13.8827 2.78224 14 2.39556 14 2C14 1.46957 13.7893 0.960859 13.4142 0.585786C13.0986 0.270129 12.6882 0.0708832 12.25 0.0156787C12.1675 0.00528766 12.084 0 12 0Z" fill="#51B6FF"/>
</svg>
