<svg width="24" height="24" viewBox="0 0 24 24" fill="none" xmlns="http://www.w3.org/2000/svg">
<path fill-rule="evenodd" clip-rule="evenodd" d="M20.9957 11.9516L20.9988 11.9644L20.996 11.9763C20.9786 12.0514 20.8935 12.4201 20.5303 13.054C20.1458 13.7251 19.5509 14.5129 18.7548 15.2617C17.167 16.755 14.8864 18 12 18C9.1136 18 6.83302 16.755 5.24522 15.2617C4.44911 14.5129 3.85422 13.7251 3.46974 13.054C3.10652 12.4201 3.02137 12.0514 3.00401 11.9763L3.00116 11.9644L3.00428 11.9516C3.02207 11.8757 3.1071 11.5133 3.46629 10.8913C3.84924 10.2282 4.44258 9.44963 5.23776 8.70937C6.82303 7.23358 9.10577 6 12 6C14.8942 6 17.177 7.23358 18.7622 8.70937C19.5574 9.44963 20.1508 10.2282 20.5337 10.8913C20.8929 11.5133 20.9779 11.8757 20.9957 11.9516ZM23 11.9641C23 13.9281 19 20 12 20C5 20 1 13.9281 1 11.9641C1 10 5 4 12 4C19 4 23 10 23 11.9641ZM14 12C14 13.1046 13.1046 14 12 14C10.8954 14 10 13.1046 10 12C10 10.8954 10.8954 10 12 10C13.1046 10 14 10.8954 14 12ZM16 12C16 14.2091 14.2091 16 12 16C9.79086 16 8 14.2091 8 12C8 9.79086 9.79086 8 12 8C14.2091 8 16 9.79086 16 12Z" fill="#2A495E" fill-opacity="0.3"/>
</svg>
